<?xml version="1.0" standalone="no"?>
<!DOCTYPE svg PUBLIC "-//W3C//DTD SVG 20010904//EN"
 "http://www.w3.org/TR/2001/REC-SVG-20010904/DTD/svg10.dtd">
<svg version="1.0" xmlns="http://www.w3.org/2000/svg"
 width="1280.000000pt" height="1280.000000pt" viewBox="0 0 1280.000000 1280.000000"
 preserveAspectRatio="xMidYMid meet">
<g transform="translate(0.000000,1280.000000) scale(0.100000,-0.100000)"
fill="#000000" stroke="none">
<path d="M6350 9795 c-233 -57 -410 -267 -410 -485 0 -55 -13 -70 -59 -70 -68
0 -357 -40 -536 -75 -418 -80 -759 -202 -989 -353 -98 -64 -214 -183 -251
-257 -27 -54 -30 -69 -30 -155 0 -85 3 -101 29 -153 39 -75 125 -169 214 -232
39 -27 71 -55 72 -60 0 -6 -26 -23 -57 -39 -204 -98 -482 -273 -663 -417 -129
-102 -335 -302 -442 -429 -44 -52 -115 -149 -159 -215 -43 -66 -87 -131 -97
-144 l-18 -24 -75 18 c-407 99 -840 352 -1294 757 -240 214 -523 516 -701 747
-38 50 -74 89 -81 88 -6 -1 -102 -87 -213 -192 l-201 -190 66 -58 c71 -64 195
-213 275 -331 120 -178 221 -359 550 -981 320 -603 515 -894 756 -1124 120
-114 250 -205 360 -251 63 -26 189 -63 370 -109 40 -11 40 -11 89 -131 205
-509 636 -974 1228 -1325 l97 -57 0 -273 0 -273 1208 -3 c664 -2 1693 -2 2287
1 l1080 5 3 271 2 271 139 83 c77 46 206 133 286 194 81 61 157 118 170 126
21 13 45 11 227 -18 274 -43 353 -51 563 -59 946 -32 1666 360 2026 1102 288
594 325 1334 99 1990 -159 459 -424 750 -758 830 -61 15 -100 17 -235 12 -242
-9 -408 -54 -551 -147 -184 -121 -300 -331 -315 -574 -7 -120 -2 -115 -156
-141 -100 -17 -365 -23 -418 -10 -16 4 -49 37 -88 88 -85 110 -281 310 -404
413 -199 167 -444 329 -688 454 -59 30 -107 60 -107 66 0 6 26 28 58 49 89 59
184 162 223 241 31 62 34 77 34 154 0 77 -3 92 -34 154 -116 235 -529 456
-1086 581 -163 36 -434 80 -585 95 -69 6 -132 15 -140 19 -10 6 -17 31 -22 77
-14 137 -65 240 -166 337 -128 122 -314 173 -482 132z m5023 -2852 c228 -314
290 -980 133 -1442 -148 -436 -452 -697 -916 -788 -117 -22 -570 -27 -591 -6
-10 10 -3 32 33 105 145 296 216 625 204 943 -3 83 -12 190 -20 240 -8 49 -12
93 -7 98 4 4 58 12 120 17 297 26 521 117 676 274 137 138 198 274 218 478 12
127 10 125 79 127 32 1 40 -4 71 -46z"/>
</g>
</svg>
